<?xml version="1.0" encoding="UTF-8" standalone="no"?>
<!-- Created with Inkscape (http://www.inkscape.org/) -->

<svg
   width="200mm"
   height="200mm"
   viewBox="0 0 200 200"
   version="1.1"
   id="svg1"
   xml:space="preserve"
   inkscape:version="1.4 (86a8ad7, 2024-10-11)"
   sodipodi:docname="Am-Alert-Logo.svg"
   inkscape:export-filename="logo\icon-512x512.png"
   inkscape:export-xdpi="65.024002"
   inkscape:export-ydpi="65.024002"
   xmlns:inkscape="http://www.inkscape.org/namespaces/inkscape"
   xmlns:sodipodi="http://sodipodi.sourceforge.net/DTD/sodipodi-0.dtd"
   xmlns="http://www.w3.org/2000/svg"
   xmlns:svg="http://www.w3.org/2000/svg"><sodipodi:namedview
     id="namedview1"
     pagecolor="#ffffff"
     bordercolor="#666666"
     borderopacity="1.0"
     inkscape:showpageshadow="2"
     inkscape:pageopacity="0.0"
     inkscape:pagecheckerboard="0"
     inkscape:deskcolor="#d1d1d1"
     inkscape:document-units="mm"
     inkscape:zoom="0.32"
     inkscape:cx="528.125"
     inkscape:cy="439.0625"
     inkscape:window-width="1920"
     inkscape:window-height="991"
     inkscape:window-x="-9"
     inkscape:window-y="-9"
     inkscape:window-maximized="1"
     inkscape:current-layer="g2" /><defs
     id="defs1"><style
       id="style4567">.cls-1{fill:#0071bc;}.cls-2{fill:#fff;}.cls-3{fill:#29e2e2;}</style></defs><g
     inkscape:label="Layer 1"
     inkscape:groupmode="layer"
     id="layer1"
     transform="translate(-13.642582,-7.0383035)"><g
       id="g2"
       transform="matrix(2.8985507,0,0,2.8985507,-363.55556,6.3156934)"><path
         id="circle2"
         style="fill:#2ecc71;fill-opacity:1;stroke-width:0.252036;stroke-linecap:round;stroke-linejoin:round"
         d="M 164.65048,0.2493005 A 34.516998,34.499872 0 0 0 136.54937,14.846535 h 10.09538 a 0.69707226,0.69672639 0 0 1 0.63649,1.007657 l -1.79342,3.251382 -0.87166,1.584045 -1.91458,3.467527 a 0.68080726,0.68046946 0 0 1 -0.60377,0.355133 h -9.79886 a 0.69707226,0.69672639 0 0 1 -0.49385,-0.215635 34.516998,34.499872 0 0 0 -1.67174,10.452656 34.516998,34.499872 0 0 0 34.51712,34.5 34.516998,34.499872 0 0 0 3.28521,-0.158915 l 11.77069,-21.346802 2.22849,-4.069463 0.51379,-0.931011 0.20449,-0.367907 0.51329,-0.93101 1.73564,-3.145097 2.29238,-4.155308 0.10481,-0.195196 a 1.363152,1.3624756 0 0 1 1.13545,-0.599894 h 10.69864 A 34.516998,34.499872 0 0 0 164.65048,0.2493005 Z M 133.40475,20.139291 a 34.516998,34.499872 0 0 0 -0.32514,0.742969 h 3.1533 a 1.4801168,1.4793824 0 1 0 0.0347,-0.742969 z m 59.46034,22.676378 0.0158,0.04088 -2.72642,4.936601 -2.44218,4.396492 -0.0634,0.113439 -0.45449,0.810929 -2.24893,4.04647 -4.61953,8.314706 A 34.516998,34.499872 0 0 0 198.20441,42.81567 Z m -7.80402,8.334123 -8.9773,16.147045 a 34.516998,34.499872 0 0 0 1.30928,-0.49361 L 185.8494,51.58566 Z m -6.7294,5.174719 a 1.4381254,1.4374118 0 0 0 -1.4381,1.437905 1.4063185,1.4056207 0 0 0 0.37013,0.955537 l -5.42779,9.767428 a 34.516998,34.499872 0 0 0 1.16613,-0.262133 l 5.0367,-9.053075 a 1.5267303,1.5259728 0 0 0 0.29293,0.02964 1.4383628,1.4376491 0 1 0 0,-2.875298 z" /><path
         d="m 151.40913,13.03048 3.23668,3.235055 c -4.61737,3.280396 -7.69575,8.529111 -8.03533,14.524471 h -4.52692 c 0.31684,-7.239633 3.89309,-13.61948 9.32557,-17.759526 z m 26.48272,0 c 5.40975,4.140046 8.986,10.519893 9.32559,17.759526 h -4.52692 c -0.33958,-5.995226 -3.44044,-11.24394 -8.01271,-14.524471 z m -9.84607,3.054249 -1.4e-4,1.538359 c 6.47372,1.538355 10.18579,7.35277 10.18579,14.298051 v 11.311738 l 4.52691,4.524806 v 2.262267 l -36.21572,1.51e-4 V 47.7577 l 4.52692,-4.524668 V 31.921273 c 0,-6.968148 3.68944,-12.75983 10.18565,-14.298185 v -1.538359 c 0,-1.877913 1.51664,-3.393673 3.39536,-3.393673 1.87858,0 3.39522,1.515893 3.39522,3.393673 z m -7.94487,36.197757 h 9.05396 c 0,0.633506 -0.11319,1.221676 -0.33946,1.764639 -0.58859,1.357416 -1.78812,2.352808 -3.25941,2.669628 -0.29423,0.0678 -0.58846,0.09041 -0.90543,0.09054 -2.51253,0 -4.52692,-2.036257 -4.54966,-4.524668 z"
         fill="#909090"
         id="path1-1"
         style="fill:#f1c40f;fill-opacity:1;stroke-width:0.000135369" /></g></g></svg>
